<svg width="24" height="24" viewBox="0 0 24 24" fill="none" xmlns="http://www.w3.org/2000/svg">
<g id="burger_menu">
<path id="vector" fill-rule="evenodd" clip-rule="evenodd" d="M2 6.15C2 5.51487 2.51487 5 3.15 5H20.85C21.4851 5 22 5.51487 22 6.15C22 6.78513 21.4851 7.3 20.85 7.3H3.15C2.51487 7.3 2 6.78513 2 6.15ZM2 12.2834C2 11.6482 2.51487 11.1334 3.15 11.1334H20.85C21.4851 11.1334 22 11.6482 22 12.2834C22 12.9185 21.4851 13.4334 20.85 13.4334H3.15C2.51487 13.4334 2 12.9185 2 12.2834ZM3.15 17.2667C2.51487 17.2667 2 17.7815 2 18.4167C2 19.0518 2.51487 19.5667 3.15 19.5667H20.85C21.4851 19.5667 22 19.0518 22 18.4167C22 17.7815 21.4851 17.2667 20.85 17.2667H3.15Z" fill="black"/>
</g>
</svg>
