<svg width="24" height="24" viewBox="0 0 24 24" fill="none" xmlns="http://www.w3.org/2000/svg">
<g id="more_btn">
<g id="vector">
<path d="M10 4.65C10 3.46259 10.9626 2.5 12.15 2.5C13.3374 2.5 14.3 3.46259 14.3 4.65C14.3 5.83741 13.3374 6.8 12.15 6.8C10.9626 6.8 10 5.83741 10 4.65Z" fill="black"/>
<path d="M10 11.95C10 10.7626 10.9626 9.79999 12.15 9.79999C13.3374 9.79999 14.3 10.7626 14.3 11.95C14.3 13.1374 13.3374 14.1 12.15 14.1C10.9626 14.1 10 13.1374 10 11.95Z" fill="black"/>
<path d="M12.15 17.1C10.9626 17.1 10 18.0626 10 19.25C10 20.4374 10.9626 21.4 12.15 21.4C13.3374 21.4 14.3 20.4374 14.3 19.25C14.3 18.0626 13.3374 17.1 12.15 17.1Z" fill="black"/>
</g>
</g>
</svg>
