<svg width="100" height="100" viewBox="0 0 100 100" fill="none" xmlns="http://www.w3.org/2000/svg">
<path fill-rule="evenodd" clip-rule="evenodd" d="M95.625 69.1991C95.625 77.9267 88.6496 85 80.0427 85C72.0649 85 65.4836 78.9152 64.571 71.0778H14.8861C11.153 71.0778 8.125 68.0074 8.125 64.2219V31.8559C8.125 28.0705 11.153 25 14.8861 25H75.0929C78.826 25 81.854 28.0705 81.854 31.8559L81.8471 53.5103C89.6036 54.4147 95.625 61.0953 95.625 69.1991ZM75.0929 28.6873H14.8861C13.1647 28.6873 11.7682 30.1034 11.7682 31.8489V64.2219C11.7682 65.9674 13.1647 67.3835 14.8861 67.3835H64.5641C65.3799 60.1209 71.0556 54.3516 78.2107 53.5033L78.2176 31.8489C78.2107 30.1034 76.8143 28.6873 75.0929 28.6873ZM80.0427 57.0435C76.8419 57.0435 73.8278 58.3053 71.5672 60.6046C69.2997 62.904 68.0553 65.9534 68.0553 69.1991C68.0553 72.4448 69.2997 75.5012 71.5672 77.7935C73.8347 80.0929 76.8419 81.3547 80.0427 81.3547C83.2435 81.3547 86.2577 80.0929 88.5183 77.7935C90.7858 75.4942 92.0302 72.4448 92.0302 69.1991C92.0302 65.9534 90.7858 62.8969 88.5183 60.6046C86.2507 58.3053 83.2435 57.0435 80.0427 57.0435ZM72.5074 41.558H50.7793C49.7769 41.558 48.9611 40.7308 48.9611 39.7143C48.9611 38.6979 49.7769 37.8707 50.7793 37.8707H72.5143C73.5167 37.8707 74.3324 38.6979 74.3324 39.7143C74.3255 40.7308 73.5167 41.558 72.5074 41.558ZM39.9878 61.4809H18.6261C16.5107 61.4809 15.1419 59.2026 16.0959 57.2748C18.5293 52.3607 23.5345 48.9818 29.307 48.9818C35.0795 48.9818 40.0846 52.3537 42.518 57.2748C43.4651 59.2096 42.1032 61.4809 39.9878 61.4809ZM29.3 45.7291C26.2721 45.7291 23.811 43.2334 23.811 40.163C23.811 37.0855 26.2652 34.5969 29.3 34.5969C32.328 34.5969 34.7891 37.0925 34.7891 40.163C34.7891 43.2404 32.3349 45.7291 29.3 45.7291ZM50.7793 46.2969H68.3111C69.3135 46.2969 70.1292 47.1241 70.1292 48.1406C70.1292 49.157 69.3135 49.9842 68.3111 49.9842H50.7793C49.7769 49.9842 48.9611 49.157 48.9611 48.1406C48.9542 47.1241 49.7699 46.2969 50.7793 46.2969ZM50.7793 54.7371H60.1259C61.1283 54.7371 61.944 55.5643 61.944 56.5808C61.944 57.5973 61.1283 58.4245 60.1259 58.4245H50.7793C49.7769 58.4245 48.9611 57.5973 48.9611 56.5808C48.9542 55.5643 49.7699 54.7371 50.7793 54.7371Z" fill="#CCCCCC"/>
<path fill-rule="evenodd" clip-rule="evenodd" d="M85.7712 63.0492C86.4983 63.7814 86.4983 64.9686 85.7712 65.7008L76.4627 75.0758C75.7357 75.8081 74.5569 75.8081 73.8299 75.0758C73.1028 74.3436 73.1028 73.1564 73.8299 72.4242L83.1384 63.0492C83.8654 62.3169 85.0442 62.3169 85.7712 63.0492Z" fill="#CCCCCC"/>
<path fill-rule="evenodd" clip-rule="evenodd" d="M73.8299 63.0492C74.5569 62.3169 75.7357 62.3169 76.4627 63.0492L85.7712 72.4242C86.4983 73.1564 86.4983 74.3436 85.7712 75.0758C85.0442 75.8081 83.8654 75.8081 83.1384 75.0758L73.8299 65.7008C73.1028 64.9686 73.1028 63.7814 73.8299 63.0492Z" fill="#CCCCCC"/>
</svg>
